<svg width="64" height="21" viewBox="0 0 64 21" fill="none" xmlns="http://www.w3.org/2000/svg">
<path d="M8.39 21H4.22921V4.20293H0.624023V0H8.39V21Z" fill="white"/>
<path d="M29.2597 10.5C29.2597 11.4665 29.1331 12.3989 28.88 13.2971C28.6366 14.1855 28.2861 15.0202 27.8286 15.8013C27.371 16.5725 26.8259 17.2803 26.1931 17.9247C25.5603 18.5593 24.8545 19.106 24.0756 19.5649C23.2968 20.0237 22.4596 20.3801 21.5639 20.6339C20.678 20.878 19.7532 21 18.7894 21H12.481V0H18.7894C19.7532 0 20.678 0.126918 21.5639 0.380753C22.4596 0.624826 23.2968 0.97629 24.0756 1.43515C24.8545 1.894 25.5603 2.44561 26.1931 3.08996C26.8259 3.72455 27.371 4.43236 27.8286 5.21339C28.2861 5.98466 28.6366 6.81939 28.88 7.71757C29.1331 8.606 29.2597 9.53347 29.2597 10.5ZM25.0686 10.5C25.0686 9.6311 24.9031 8.8159 24.5721 8.05439C24.2509 7.29289 23.8031 6.62901 23.2287 6.06276C22.664 5.48675 21.9972 5.03278 21.2281 4.70084C20.4687 4.3689 19.6558 4.20293 18.7894 4.20293H16.7012V16.7971H18.7894C19.6558 16.7971 20.4687 16.636 21.2281 16.3138C21.9972 15.9819 22.664 15.5328 23.2287 14.9665C23.8031 14.3905 24.2509 13.7218 24.5721 12.9603C24.9031 12.189 25.0686 11.3689 25.0686 10.5Z" fill="white"/>
<path d="M46.4034 21H32.0488V0H46.4034V4.20293H36.2398V8.40586H43.1178V12.6088H36.2398V16.7971H46.4034V21Z" fill="white"/>
<path d="M63.9999 21H49.3386V0H53.5297V16.7971H63.9999V21Z" fill="white"/>
<rect width="4.22969" height="4.24172" fill="url(#paint0_linear_812_1207)"/>
<rect x="4.22974" y="4.24173" width="4.22969" height="4.24172" fill="url(#paint1_linear_812_1207)"/>
<rect x="4.22974" width="4.22969" height="4.24172" fill="url(#paint2_linear_812_1207)"/>
<defs>
<linearGradient id="paint0_linear_812_1207" x1="2.11484" y1="0" x2="2.11484" y2="4.24172" gradientUnits="userSpaceOnUse">
<stop stop-color="#FFBEBE"/>
<stop offset="0.473958" stop-color="#FF4747"/>
<stop offset="1" stop-color="#FFC6C6"/>
</linearGradient>
<linearGradient id="paint1_linear_812_1207" x1="4.22974" y1="8.48345" x2="8.45942" y2="8.48345" gradientUnits="userSpaceOnUse">
<stop stop-color="#68A2FF"/>
<stop offset="1" stop-color="#2D83FE"/>
</linearGradient>
<linearGradient id="paint2_linear_812_1207" x1="6.34458" y1="0" x2="6.34458" y2="4.24172" gradientUnits="userSpaceOnUse">
<stop stop-color="#CAFFBE"/>
<stop offset="0.473958" stop-color="#7DFF47"/>
<stop offset="1" stop-color="#DDFFC6"/>
</linearGradient>
</defs>
</svg>
