<svg width="24" height="20" viewBox="0 0 24 20" fill="none" xmlns="http://www.w3.org/2000/svg">
<g filter="url(#filter0_d_809_1033)">
<path d="M4.6718 10.5195C3.89075 9.73848 3.89075 8.47215 4.6718 7.69111C5.45285 6.91006 6.71918 6.91006 7.50023 7.69111L11.7429 11.9337C12.5239 12.7148 12.5239 13.9811 11.7429 14.7622C10.9618 15.5432 9.69549 15.5432 8.91444 14.7622L4.6718 10.5195Z" fill="url(#paint0_linear_809_1033)"/>
<path d="M15.9855 4.86267C16.7666 4.08162 18.0329 4.08162 18.814 4.86267C19.595 5.64372 19.595 6.91005 18.814 7.6911L11.7429 14.7622C10.9618 15.5432 9.69549 15.5432 8.91444 14.7622C8.13339 13.9811 8.13341 12.7148 8.91446 11.9337L15.9855 4.86267Z" fill="url(#paint1_linear_809_1033)"/>
</g>
<defs>
<filter id="filter0_d_809_1033" x="0.0860138" y="0.276886" width="23.3137" height="19.0711" filterUnits="userSpaceOnUse" color-interpolation-filters="sRGB">
<feFlood flood-opacity="0" result="BackgroundImageFix"/>
<feColorMatrix in="SourceAlpha" type="matrix" values="0 0 0 0 0 0 0 0 0 0 0 0 0 0 0 0 0 0 127 0" result="hardAlpha"/>
<feOffset/>
<feGaussianBlur stdDeviation="2"/>
<feComposite in2="hardAlpha" operator="out"/>
<feColorMatrix type="matrix" values="0 0 0 0 0.509804 0 0 0 0 1 0 0 0 0 0.313726 0 0 0 1 0"/>
<feBlend mode="normal" in2="BackgroundImageFix" result="effect1_dropShadow_809_1033"/>
<feBlend mode="normal" in="SourceGraphic" in2="effect1_dropShadow_809_1033" result="shape"/>
</filter>
<linearGradient id="paint0_linear_809_1033" x1="11.7429" y1="4.27689" x2="11.7429" y2="15.348" gradientUnits="userSpaceOnUse">
<stop stop-color="#CAFFBE"/>
<stop offset="0.473958" stop-color="#7DFF47"/>
<stop offset="1" stop-color="#DDFFC6"/>
</linearGradient>
<linearGradient id="paint1_linear_809_1033" x1="11.7429" y1="4.27689" x2="11.7429" y2="15.348" gradientUnits="userSpaceOnUse">
<stop stop-color="#CAFFBE"/>
<stop offset="0.473958" stop-color="#7DFF47"/>
<stop offset="1" stop-color="#DDFFC6"/>
</linearGradient>
</defs>
</svg>
