<svg width="119" height="149" viewBox="0 0 119 149" fill="none" xmlns="http://www.w3.org/2000/svg">
<path d="M118.5 51.9325C118.423 51.255 118.275 50.5875 118.058 49.9413V49.2775C117.703 48.5192 117.23 47.8222 116.656 47.2125V47.2125L72.4062 2.9625C71.7966 2.38884 71.0996 1.91585 70.3413 1.56125C70.1211 1.52998 69.8976 1.52998 69.6775 1.56125C68.9283 1.13159 68.1009 0.855789 67.2438 0.75H22.625C16.7571 0.75 11.1295 3.08102 6.98026 7.23026C2.83102 11.3795 0.5 17.0071 0.5 22.875V126.125C0.5 131.993 2.83102 137.62 6.98026 141.77C11.1295 145.919 16.7571 148.25 22.625 148.25H96.375C102.243 148.25 107.87 145.919 112.02 141.77C116.169 137.62 118.5 131.993 118.5 126.125V52.375C118.5 52.375 118.5 52.375 118.5 51.9325ZM74.25 25.8987L93.3513 45H81.625C79.669 45 77.7932 44.223 76.4101 42.8399C75.027 41.4568 74.25 39.581 74.25 37.625V25.8987ZM103.75 126.125C103.75 128.081 102.973 129.957 101.59 131.34C100.207 132.723 98.331 133.5 96.375 133.5H22.625C20.669 133.5 18.7932 132.723 17.4101 131.34C16.027 129.957 15.25 128.081 15.25 126.125V22.875C15.25 20.919 16.027 19.0432 17.4101 17.6601C18.7932 16.277 20.669 15.5 22.625 15.5H59.5V37.625C59.5 43.4929 61.831 49.1205 65.9803 53.2697C70.1295 57.419 75.7571 59.75 81.625 59.75H103.75V126.125ZM76.3887 76.6387L52.125 100.976L42.6113 91.3887C41.2225 90 39.339 89.2198 37.375 89.2198C35.411 89.2198 33.5275 90 32.1387 91.3887C30.75 92.7775 29.9698 94.661 29.9698 96.625C29.9698 98.589 30.75 100.473 32.1387 101.861L46.8887 116.611C47.5744 117.302 48.39 117.851 49.2887 118.226C50.1875 118.6 51.1514 118.793 52.125 118.793C53.0986 118.793 54.0625 118.6 54.9613 118.226C55.86 117.851 56.6756 117.302 57.3613 116.611L86.8613 87.1113C88.25 85.7225 89.0302 83.839 89.0302 81.875C89.0302 79.911 88.25 78.0275 86.8613 76.6387C85.4725 75.25 83.589 74.4698 81.625 74.4698C79.661 74.4698 77.7775 75.25 76.3887 76.6387V76.6387Z" fill="#2D3953"/>
</svg>
