<svg width="26" height="28" viewBox="0 0 26 28" fill="none" xmlns="http://www.w3.org/2000/svg">
<g filter="url(#filter0_d_701_855)">
<path d="M11 20C11.2652 20 11.5196 19.8946 11.7071 19.7071C11.8946 19.5196 12 19.2652 12 19V13C12 12.7348 11.8946 12.4804 11.7071 12.2929C11.5196 12.1054 11.2652 12 11 12C10.7348 12 10.4804 12.1054 10.2929 12.2929C10.1054 12.4804 10 12.7348 10 13V19C10 19.2652 10.1054 19.5196 10.2929 19.7071C10.4804 19.8946 10.7348 20 11 20ZM21 8H17V7C17 6.20435 16.6839 5.44129 16.1213 4.87868C15.5587 4.31607 14.7956 4 14 4H12C11.2044 4 10.4413 4.31607 9.87868 4.87868C9.31607 5.44129 9 6.20435 9 7V8H5C4.73478 8 4.48043 8.10536 4.29289 8.29289C4.10536 8.48043 4 8.73478 4 9C4 9.26522 4.10536 9.51957 4.29289 9.70711C4.48043 9.89464 4.73478 10 5 10H6V21C6 21.7956 6.31607 22.5587 6.87868 23.1213C7.44129 23.6839 8.20435 24 9 24H17C17.7956 24 18.5587 23.6839 19.1213 23.1213C19.6839 22.5587 20 21.7956 20 21V10H21C21.2652 10 21.5196 9.89464 21.7071 9.70711C21.8946 9.51957 22 9.26522 22 9C22 8.73478 21.8946 8.48043 21.7071 8.29289C21.5196 8.10536 21.2652 8 21 8ZM11 7C11 6.73478 11.1054 6.48043 11.2929 6.29289C11.4804 6.10536 11.7348 6 12 6H14C14.2652 6 14.5196 6.10536 14.7071 6.29289C14.8946 6.48043 15 6.73478 15 7V8H11V7ZM18 21C18 21.2652 17.8946 21.5196 17.7071 21.7071C17.5196 21.8946 17.2652 22 17 22H9C8.73478 22 8.48043 21.8946 8.29289 21.7071C8.10536 21.5196 8 21.2652 8 21V10H18V21ZM15 20C15.2652 20 15.5196 19.8946 15.7071 19.7071C15.8946 19.5196 16 19.2652 16 19V13C16 12.7348 15.8946 12.4804 15.7071 12.2929C15.5196 12.1054 15.2652 12 15 12C14.7348 12 14.4804 12.1054 14.2929 12.2929C14.1054 12.4804 14 12.7348 14 13V19C14 19.2652 14.1054 19.5196 14.2929 19.7071C14.4804 19.8946 14.7348 20 15 20Z" fill="url(#paint0_linear_701_855)"/>
</g>
<defs>
<filter id="filter0_d_701_855" x="0" y="0" width="26" height="28" filterUnits="userSpaceOnUse" color-interpolation-filters="sRGB">
<feFlood flood-opacity="0" result="BackgroundImageFix"/>
<feColorMatrix in="SourceAlpha" type="matrix" values="0 0 0 0 0 0 0 0 0 0 0 0 0 0 0 0 0 0 127 0" result="hardAlpha"/>
<feOffset/>
<feGaussianBlur stdDeviation="2"/>
<feComposite in2="hardAlpha" operator="out"/>
<feColorMatrix type="matrix" values="0 0 0 0 1 0 0 0 0 0.294118 0 0 0 0 0.294118 0 0 0 1 0"/>
<feBlend mode="normal" in2="BackgroundImageFix" result="effect1_dropShadow_701_855"/>
<feBlend mode="normal" in="SourceGraphic" in2="effect1_dropShadow_701_855" result="shape"/>
</filter>
<linearGradient id="paint0_linear_701_855" x1="22" y1="24" x2="4" y2="24" gradientUnits="userSpaceOnUse">
<stop stop-color="#F86868"/>
<stop offset="1" stop-color="#FF4747"/>
</linearGradient>
</defs>
</svg>
