<svg width="26" height="22" viewBox="0 0 26 22" fill="none" xmlns="http://www.w3.org/2000/svg">
<g filter="url(#filter0_d_701_399)">
<path d="M20.4399 10.7C18.9249 7.1825 16.0749 5 12.9999 5C9.92493 5 7.07493 7.1825 5.55993 10.7C5.51863 10.7946 5.49731 10.8968 5.49731 11C5.49731 11.1032 5.51863 11.2054 5.55993 11.3C7.07493 14.8175 9.92493 17 12.9999 17C16.0749 17 18.9249 14.8175 20.4399 11.3C20.4812 11.2054 20.5025 11.1032 20.5025 11C20.5025 10.8968 20.4812 10.7946 20.4399 10.7ZM12.9999 15.5C10.6224 15.5 8.37243 13.7825 7.07493 11C8.37243 8.2175 10.6224 6.5 12.9999 6.5C15.3774 6.5 17.6274 8.2175 18.9249 11C17.6274 13.7825 15.3774 15.5 12.9999 15.5ZM12.9999 8C12.4066 8 11.8266 8.17595 11.3332 8.50559C10.8399 8.83524 10.4554 9.30377 10.2283 9.85195C10.0012 10.4001 9.94182 11.0033 10.0576 11.5853C10.1733 12.1672 10.4591 12.7018 10.8786 13.1213C11.2982 13.5409 11.8327 13.8266 12.4147 13.9424C12.9966 14.0581 13.5998 13.9987 14.148 13.7716C14.6962 13.5446 15.1647 13.1601 15.4943 12.6667C15.824 12.1734 15.9999 11.5933 15.9999 11C15.9999 10.2044 15.6839 9.44129 15.1212 8.87868C14.5586 8.31607 13.7956 8 12.9999 8ZM12.9999 12.5C12.7033 12.5 12.4132 12.412 12.1666 12.2472C11.9199 12.0824 11.7276 11.8481 11.6141 11.574C11.5006 11.2999 11.4709 10.9983 11.5287 10.7074C11.5866 10.4164 11.7295 10.1491 11.9393 9.93934C12.149 9.72956 12.4163 9.5867 12.7073 9.52882C12.9983 9.47094 13.2999 9.50065 13.574 9.61418C13.848 9.72771 14.0823 9.91997 14.2471 10.1666C14.412 10.4133 14.4999 10.7033 14.4999 11C14.4999 11.3978 14.3419 11.7794 14.0606 12.0607C13.7793 12.342 13.3978 12.5 12.9999 12.5Z" fill="white"/>
</g>
<rect x="6" y="16.3137" width="17.2638" height="2" rx="1" transform="rotate(-45 6 16.3137)" fill="white"/>
<defs>
<filter id="filter0_d_701_399" x="-1" y="-3" width="28" height="28" filterUnits="userSpaceOnUse" color-interpolation-filters="sRGB">
<feFlood flood-opacity="0" result="BackgroundImageFix"/>
<feColorMatrix in="SourceAlpha" type="matrix" values="0 0 0 0 0 0 0 0 0 0 0 0 0 0 0 0 0 0 127 0" result="hardAlpha"/>
<feOffset/>
<feGaussianBlur stdDeviation="2.5"/>
<feComposite in2="hardAlpha" operator="out"/>
<feColorMatrix type="matrix" values="0 0 0 0 0 0 0 0 0 0 0 0 0 0 0 0 0 0 0.2 0"/>
<feBlend mode="normal" in2="BackgroundImageFix" result="effect1_dropShadow_701_399"/>
<feBlend mode="normal" in="SourceGraphic" in2="effect1_dropShadow_701_399" result="shape"/>
</filter>
</defs>
</svg>
